<svg width="341" height="42" viewBox="0 0 341 42" fill="none" xmlns="http://www.w3.org/2000/svg">
<path d="M41.1606 24.112L42.1606 24.1051L42.1537 23.112H41.1606V24.112ZM30.6006 24.112V23.112H29.5868L29.6007 24.1257L30.6006 24.112ZM30.6006 18.4L29.6007 18.3862L29.5867 19.4H30.6006V18.4ZM41.1606 18.4V19.4H42.1537L42.1606 18.4069L41.1606 18.4ZM41.1606 23.112H30.6006V25.112H41.1606V23.112ZM29.6007 24.1257C29.6244 25.8579 29.5474 27.1566 29.3232 28.1447C29.1035 29.1127 28.7567 29.7195 28.2776 30.1417C27.785 30.5756 27.0485 30.9066 25.8783 31.1203C24.7048 31.3345 23.1824 31.416 21.1926 31.416V33.416C23.2109 33.416 24.8804 33.3355 26.2375 33.0877C27.5978 32.8394 28.7302 32.4084 29.5997 31.6423C30.4825 30.8645 30.9908 29.8333 31.2736 28.5873C31.5518 27.3614 31.6248 25.8701 31.6005 24.0983L29.6007 24.1257ZM21.1926 31.416C17.1121 31.416 15.197 30.9429 14.1515 29.7247C13.6225 29.1084 13.2324 28.2053 12.9835 26.813C12.7341 25.418 12.6406 23.6181 12.6406 21.28H10.6406C10.6406 23.6459 10.7331 25.59 11.0147 27.165C11.2968 28.7427 11.7828 30.0356 12.6338 31.0273C14.3483 33.0251 17.2091 33.416 21.1926 33.416V31.416ZM12.6406 21.28C12.6406 18.9419 12.7341 17.142 12.9835 15.747C13.2324 14.3547 13.6225 13.4516 14.1515 12.8353C15.197 11.6171 17.1121 11.144 21.1926 11.144V9.144C17.2091 9.144 14.3483 9.53494 12.6338 11.5327C11.7828 12.5244 11.2968 13.8173 11.0147 15.395C10.7331 16.97 10.6406 18.9141 10.6406 21.28H12.6406ZM21.1926 11.144C23.1823 11.144 24.705 11.2255 25.8788 11.4391C27.0497 11.6522 27.7868 11.9821 28.2794 12.414C28.7582 12.8337 29.1042 13.4361 29.3235 14.3964C29.5474 15.377 29.6244 16.6662 29.6007 18.3862L31.6005 18.4138C31.6248 16.6538 31.5518 15.171 31.2733 13.9511C30.9901 12.7109 30.481 11.6843 29.5978 10.91C28.7285 10.1479 27.5966 9.71884 26.2369 9.47141C24.8802 9.22451 23.211 9.144 21.1926 9.144V11.144ZM30.6006 19.4H41.1606V17.4H30.6006V19.4ZM42.1606 18.4069C42.2083 11.5362 41.4956 6.94739 38.2022 4.23598C36.5715 2.89342 34.4043 2.09334 31.6436 1.61941C28.8833 1.14557 25.4422 0.983997 21.1926 0.983997V2.984C25.415 2.984 28.7179 3.14643 31.3052 3.59058C33.892 4.03465 35.6758 4.74657 36.931 5.78002C39.4096 7.82061 40.2089 11.4398 40.1607 18.3931L42.1606 18.4069ZM21.1926 0.983997C16.9405 0.983997 13.485 1.17245 10.7051 1.73029C7.91662 2.28987 5.73042 3.23592 4.09056 4.80816C2.44684 6.3841 1.45177 8.49327 0.86341 11.1868C0.278024 13.8668 0.0806251 17.1942 0.0806251 21.28H2.08063C2.08063 17.2298 2.27923 14.0772 2.81734 11.6136C3.35248 9.16373 4.20841 7.46589 5.47469 6.25183C6.74483 5.03407 8.52763 4.20713 11.0986 3.6912C13.6782 3.17355 16.9727 2.984 21.1926 2.984V0.983997ZM0.0806251 21.28C0.0806251 25.3658 0.278024 28.6932 0.86341 31.3731C1.45177 34.0667 2.44684 36.1759 4.09056 37.7518C5.73042 39.3241 7.91662 40.2701 10.7051 40.8297C13.485 41.3875 16.9405 41.576 21.1926 41.576V39.576C16.9727 39.576 13.6782 39.3865 11.0986 38.8688C8.52763 38.3529 6.74483 37.5259 5.47469 36.3082C4.20841 35.0941 3.35248 33.3963 2.81734 30.9464C2.27923 28.4828 2.08063 25.3302 2.08063 21.28H0.0806251ZM21.1926 41.576C25.4422 41.576 28.8834 41.4144 31.6438 40.9398C34.4048 40.465 36.5723 39.6633 38.2032 38.3172C41.4958 35.5996 42.2083 30.9991 42.1606 24.1051L40.1607 24.1189C40.2089 31.0969 39.4095 34.7284 36.9301 36.7748C35.6749 37.8107 33.8914 38.524 31.3049 38.9687C28.7178 39.4136 25.4151 39.576 21.1926 39.576V41.576ZM48.4981 40H47.4981V41H48.4981V40ZM58.5781 40V41H59.5781V40H58.5781ZM58.5781 25.216V24.216H57.5781V25.216H58.5781ZM73.9381 25.216H74.9381V24.216H73.9381V25.216ZM73.9381 40H72.9381V41H73.9381V40ZM84.0181 40V41H85.0181V40H84.0181ZM84.0181 2.56H85.0181V1.56H84.0181V2.56ZM73.9381 2.56V1.56H72.9381V2.56H73.9381ZM73.9381 16.576V17.576H74.9381V16.576H73.9381ZM58.5781 16.576H57.5781V17.576H58.5781V16.576ZM58.5781 2.56H59.5781V1.56H58.5781V2.56ZM48.4981 2.56V1.56H47.4981V2.56H48.4981ZM48.4981 41H58.5781V39H48.4981V41ZM59.5781 40V25.216H57.5781V40H59.5781ZM58.5781 26.216H73.9381V24.216H58.5781V26.216ZM72.9381 25.216V40H74.9381V25.216H72.9381ZM73.9381 41H84.0181V39H73.9381V41ZM85.0181 40V2.56H83.0181V40H85.0181ZM84.0181 1.56H73.9381V3.56H84.0181V1.56ZM72.9381 2.56V16.576H74.9381V2.56H72.9381ZM73.9381 15.576H58.5781V17.576H73.9381V15.576ZM59.5781 16.576V2.56H57.5781V16.576H59.5781ZM58.5781 1.56H48.4981V3.56H58.5781V1.56ZM47.4981 2.56V40H49.4981V2.56H47.4981ZM91.8731 2.56V1.56H90.8731V2.56H91.8731ZM91.8731 40H90.8731V41H91.8731V40ZM122.545 40V41H123.545V40H122.545ZM122.545 31.36H123.545V30.36H122.545V31.36ZM101.953 31.36H100.953V32.36H101.953V31.36ZM101.953 25.12V24.12H100.953V25.12H101.953ZM120.097 25.12V26.12H121.097V25.12H120.097ZM120.097 16.96H121.097V15.96H120.097V16.96ZM101.953 16.96H100.953V17.96H101.953V16.96ZM101.953 11.2V10.2H100.953V11.2H101.953ZM122.545 11.2V12.2H123.545V11.2H122.545ZM122.545 2.56H123.545V1.56H122.545V2.56ZM90.8731 2.56V40H92.8731V2.56H90.8731ZM91.8731 41H122.545V39H91.8731V41ZM123.545 40V31.36H121.545V40H123.545ZM122.545 30.36H101.953V32.36H122.545V30.36ZM102.953 31.36V25.12H100.953V31.36H102.953ZM101.953 26.12H120.097V24.12H101.953V26.12ZM121.097 25.12V16.96H119.097V25.12H121.097ZM120.097 15.96H101.953V17.96H120.097V15.96ZM102.953 16.96V11.2H100.953V16.96H102.953ZM101.953 12.2H122.545V10.2H101.953V12.2ZM123.545 11.2V2.56H121.545V11.2H123.545ZM122.545 1.56H91.8731V3.56H122.545V1.56ZM169.973 24.112L170.973 24.1051L170.966 23.112H169.973V24.112ZM159.413 24.112V23.112H158.399L158.413 24.1257L159.413 24.112ZM159.413 18.4L158.413 18.3862L158.399 19.4H159.413V18.4ZM169.973 18.4V19.4H170.966L170.973 18.4069L169.973 18.4ZM169.973 23.112H159.413V25.112H169.973V23.112ZM158.413 24.1257C158.437 25.8579 158.36 27.1566 158.136 28.1447C157.916 29.1127 157.569 29.7195 157.09 30.1417C156.598 30.5756 155.861 30.9066 154.691 31.1203C153.517 31.3345 151.995 31.416 150.005 31.416V33.416C152.023 33.416 153.693 33.3355 155.05 33.0877C156.41 32.8394 157.543 32.4084 158.412 31.6423C159.295 30.8645 159.803 29.8333 160.086 28.5873C160.364 27.3614 160.437 25.8701 160.413 24.0983L158.413 24.1257ZM150.005 31.416C145.925 31.416 144.009 30.9429 142.964 29.7247C142.435 29.1084 142.045 28.2053 141.796 26.813C141.547 25.418 141.453 23.6181 141.453 21.28H139.453C139.453 23.6459 139.546 25.59 139.827 27.165C140.109 28.7427 140.595 30.0356 141.446 31.0273C143.161 33.0251 146.022 33.416 150.005 33.416V31.416ZM141.453 21.28C141.453 18.9419 141.547 17.142 141.796 15.747C142.045 14.3547 142.435 13.4516 142.964 12.8353C144.009 11.6171 145.925 11.144 150.005 11.144V9.144C146.022 9.144 143.161 9.53494 141.446 11.5327C140.595 12.5244 140.109 13.8173 139.827 15.395C139.546 16.97 139.453 18.9141 139.453 21.28H141.453ZM150.005 11.144C151.995 11.144 153.518 11.2255 154.691 11.4391C155.862 11.6522 156.599 11.9821 157.092 12.414C157.571 12.8337 157.917 13.4361 158.136 14.3964C158.36 15.377 158.437 16.6662 158.413 18.3862L160.413 18.4138C160.437 16.6538 160.364 15.171 160.086 13.9511C159.803 12.7109 159.294 11.6843 158.41 10.91C157.541 10.1479 156.409 9.71884 155.049 9.47141C153.693 9.22451 152.023 9.144 150.005 9.144V11.144ZM159.413 19.4H169.973V17.4H159.413V19.4ZM170.973 18.4069C171.021 11.5362 170.308 6.94739 167.015 4.23598C165.384 2.89342 163.217 2.09334 160.456 1.61941C157.696 1.14557 154.255 0.983997 150.005 0.983997V2.984C154.228 2.984 157.53 3.14643 160.118 3.59058C162.704 4.03465 164.488 4.74657 165.744 5.78002C168.222 7.82061 169.021 11.4398 168.973 18.3931L170.973 18.4069ZM150.005 0.983997C145.753 0.983997 142.298 1.17245 139.518 1.73029C136.729 2.28987 134.543 3.23592 132.903 4.80816C131.259 6.3841 130.264 8.49327 129.676 11.1868C129.091 13.8668 128.893 17.1942 128.893 21.28H130.893C130.893 17.2298 131.092 14.0772 131.63 11.6136C132.165 9.16373 133.021 7.46589 134.287 6.25183C135.557 5.03407 137.34 4.20713 139.911 3.6912C142.491 3.17355 145.785 2.984 150.005 2.984V0.983997ZM128.893 21.28C128.893 25.3658 129.091 28.6932 129.676 31.3731C130.264 34.0667 131.259 36.1759 132.903 37.7518C134.543 39.3241 136.729 40.2701 139.518 40.8297C142.298 41.3875 145.753 41.576 150.005 41.576V39.576C145.785 39.576 142.491 39.3865 139.911 38.8688C137.34 38.3529 135.557 37.5259 134.287 36.3082C133.021 35.0941 132.165 33.3963 131.63 30.9464C131.092 28.4828 130.893 25.3302 130.893 21.28H128.893ZM150.005 41.576C154.255 41.576 157.696 41.4144 160.456 40.9398C163.217 40.465 165.385 39.6633 167.016 38.3172C170.308 35.5996 171.021 30.9991 170.973 24.1051L168.973 24.1189C169.021 31.0969 168.222 34.7284 165.743 36.7748C164.487 37.8107 162.704 38.524 160.117 38.9687C157.53 39.4136 154.228 39.576 150.005 39.576V41.576ZM177.311 40H176.311V41H177.311V40ZM187.391 40V41H188.391V40H187.391ZM187.391 24.976V23.976H186.391V24.976H187.391ZM192.719 24.976L193.589 24.4838L193.302 23.976H192.719V24.976ZM201.215 40L200.344 40.4922L200.631 41H201.215V40ZM212.735 40V41H214.531L213.584 39.473L212.735 40ZM200.591 20.416L199.753 19.8691L199.405 20.402L199.741 20.943L200.591 20.416ZM212.255 2.56L213.092 3.10688L214.102 1.56H212.255V2.56ZM201.215 2.56V1.56H200.666L200.371 2.02236L201.215 2.56ZM192.431 16.336V17.336H192.979L193.274 16.8736L192.431 16.336ZM187.391 16.336H186.391V17.336H187.391V16.336ZM187.391 2.56H188.391V1.56H187.391V2.56ZM177.311 2.56V1.56H176.311V2.56H177.311ZM177.311 41H187.391V39H177.311V41ZM188.391 40V24.976H186.391V40H188.391ZM187.391 25.976H192.719V23.976H187.391V25.976ZM191.848 25.4682L200.344 40.4922L202.085 39.5078L193.589 24.4838L191.848 25.4682ZM201.215 41H212.735V39H201.215V41ZM213.584 39.473L201.44 19.889L199.741 20.943L211.885 40.527L213.584 39.473ZM201.428 20.9629L213.092 3.10688L211.417 2.01311L199.753 19.8691L201.428 20.9629ZM212.255 1.56H201.215V3.56H212.255V1.56ZM200.371 2.02236L191.587 15.7984L193.274 16.8736L202.058 3.09763L200.371 2.02236ZM192.431 15.336H187.391V17.336H192.431V15.336ZM188.391 16.336V2.56H186.391V16.336H188.391ZM187.391 1.56H177.311V3.56H187.391V1.56ZM176.311 2.56V40H178.311V2.56H176.311ZM238.824 11.144C240.881 11.144 242.44 11.2527 243.636 11.5344C244.812 11.8115 245.574 12.2414 246.109 12.8465C246.655 13.4632 247.055 14.3641 247.311 15.7523C247.568 17.1447 247.664 18.9424 247.664 21.28H249.664C249.664 18.9136 249.569 16.9673 249.278 15.3897C248.986 13.8079 248.484 12.5128 247.607 11.5215C246.721 10.5185 245.541 9.92847 244.094 9.58764C242.667 9.25128 240.919 9.144 238.824 9.144V11.144ZM247.664 21.28C247.664 23.6176 247.568 25.4153 247.311 26.8077C247.055 28.1959 246.655 29.0968 246.109 29.7135C245.574 30.3186 244.812 30.7485 243.636 31.0256C242.44 31.3073 240.881 31.416 238.824 31.416V33.416C240.919 33.416 242.667 33.3087 244.094 32.9724C245.541 32.6315 246.721 32.0415 247.607 31.0385C248.484 30.0472 248.986 28.7521 249.278 27.1703C249.569 25.5927 249.664 23.6464 249.664 21.28H247.664ZM238.824 31.416C236.767 31.416 235.209 31.3073 234.013 31.0256C232.836 30.7485 232.074 30.3186 231.539 29.7135C230.994 29.0968 230.593 28.1959 230.338 26.8077C230.081 25.4153 229.984 23.6176 229.984 21.28H227.984C227.984 23.6464 228.08 25.5927 228.371 27.1703C228.662 28.7521 229.165 30.0472 230.041 31.0385C230.928 32.0415 232.107 32.6315 233.554 32.9724C234.982 33.3087 236.729 33.416 238.824 33.416V31.416ZM229.984 21.28C229.984 18.9424 230.081 17.1447 230.338 15.7523C230.593 14.3641 230.994 13.4632 231.539 12.8465C232.074 12.2414 232.836 11.8115 234.013 11.5344C235.209 11.2527 236.767 11.144 238.824 11.144V9.144C236.729 9.144 234.982 9.25128 233.554 9.58764C232.107 9.92847 230.928 10.5185 230.041 11.5215C229.165 12.5128 228.662 13.8079 228.371 15.3897C228.08 16.9673 227.984 18.9136 227.984 21.28H229.984ZM217.424 21.28C217.424 25.3661 217.625 28.6947 218.219 31.3761C218.817 34.0721 219.827 36.1817 221.493 37.7568C223.155 39.3269 225.369 40.2714 228.193 40.8302C231.01 41.3875 234.513 41.576 238.824 41.576V39.576C234.544 39.576 231.201 39.3865 228.581 38.8683C225.97 38.3516 224.158 37.5231 222.867 36.3032C221.582 35.0883 220.714 33.3909 220.172 30.9434C219.626 28.4813 219.424 25.3298 219.424 21.28H217.424ZM238.824 41.576C243.136 41.576 246.639 41.3875 249.455 40.8302C252.28 40.2714 254.494 39.3269 256.155 37.7568C257.822 36.1817 258.832 34.0721 259.43 31.3761C260.024 28.6947 260.224 25.3661 260.224 21.28H258.224C258.224 25.3298 258.023 28.4813 257.477 30.9434C256.935 33.3909 256.067 35.0883 254.781 36.3032C253.491 37.5231 251.679 38.3516 249.067 38.8683C246.448 39.3865 243.105 39.576 238.824 39.576V41.576ZM260.224 21.28C260.224 17.1938 260.024 13.8653 259.43 11.1839C258.832 8.48794 257.822 6.37828 256.155 4.80323C254.494 3.23309 252.28 2.28861 249.455 1.72976C246.639 1.17246 243.136 0.983997 238.824 0.983997V2.984C243.105 2.984 246.448 3.17353 249.067 3.69173C251.679 4.20838 253.491 5.03691 254.781 6.25677C256.067 7.47171 256.935 9.16905 257.477 11.6166C258.023 14.0787 258.224 17.2302 258.224 21.28H260.224ZM238.824 0.983997C234.513 0.983997 231.01 1.17246 228.193 1.72976C225.369 2.28861 223.155 3.23309 221.493 4.80323C219.827 6.37828 218.817 8.48794 218.219 11.1839C217.625 13.8653 217.424 17.1938 217.424 21.28H219.424C219.424 17.2302 219.626 14.0787 220.172 11.6166C220.714 9.16905 221.582 7.47171 222.867 6.25677C224.158 5.03691 225.97 4.20838 228.581 3.69173C231.201 3.17353 234.544 2.984 238.824 2.984V0.983997ZM299.808 2.56H300.808V1.56H299.808V2.56ZM289.728 2.56V1.56H288.728V2.56H289.728ZM276.672 2.56H277.672V1.56H276.672V2.56ZM266.592 2.56V1.56H265.592V2.56H266.592ZM300.808 24.64V2.56H298.808V24.64H300.808ZM299.808 1.56H289.728V3.56H299.808V1.56ZM288.728 2.56V24.64H290.728V2.56H288.728ZM288.728 24.64C288.728 26.2707 288.664 27.5083 288.499 28.4576C288.334 29.4052 288.081 29.9781 287.768 30.351C287.16 31.0749 286.007 31.416 283.2 31.416V33.416C285.913 33.416 288.024 33.1571 289.3 31.637C289.929 30.8879 290.273 29.9278 290.469 28.8009C290.665 27.6757 290.728 26.2973 290.728 24.64H288.728ZM283.2 31.416C280.393 31.416 279.24 31.0749 278.632 30.351C278.319 29.9781 278.066 29.4052 277.901 28.4576C277.735 27.5083 277.672 26.2707 277.672 24.64H275.672C275.672 26.2973 275.734 27.6757 275.93 28.8009C276.127 29.9278 276.471 30.8879 277.1 31.637C278.376 33.1571 280.487 33.416 283.2 33.416V31.416ZM277.672 24.64V2.56H275.672V24.64H277.672ZM276.672 1.56H266.592V3.56H276.672V1.56ZM265.592 2.56V24.64H267.592V2.56H265.592ZM265.592 24.64C265.592 28.0175 265.753 30.7806 266.239 33.0125C266.727 35.2581 267.558 37.0361 268.947 38.3694C270.332 39.6991 272.172 40.4907 274.495 40.9565C276.809 41.4206 279.68 41.576 283.2 41.576V39.576C279.712 39.576 277.002 39.4194 274.888 38.9955C272.783 38.5733 271.347 37.9009 270.332 36.9266C269.321 35.9559 268.629 34.5899 268.193 32.5875C267.755 30.5714 267.592 27.9825 267.592 24.64H265.592ZM283.2 41.576C286.72 41.576 289.59 41.4206 291.905 40.9565C294.227 40.4907 296.067 39.6991 297.452 38.3694C298.841 37.0361 299.673 35.2581 300.161 33.0125C300.647 30.7806 300.808 28.0175 300.808 24.64H298.808C298.808 27.9825 298.645 30.5714 298.207 32.5875C297.771 34.5899 297.078 35.9559 296.067 36.9266C295.052 37.9009 293.616 38.5733 291.511 38.9955C289.397 39.4194 286.688 39.576 283.2 39.576V41.576ZM317.462 40H316.462V41H317.462V40ZM327.542 40V41H328.542V40H327.542ZM327.542 10.72V9.72H326.542V10.72H327.542ZM339.11 10.72V11.72H340.11V10.72H339.11ZM339.11 2.56H340.11V1.56H339.11V2.56ZM305.99 2.56V1.56H304.99V2.56H305.99ZM305.99 10.72H304.99V11.72H305.99V10.72ZM317.462 10.72H318.462V9.72H317.462V10.72ZM317.462 41H327.542V39H317.462V41ZM328.542 40V10.72H326.542V40H328.542ZM327.542 11.72H339.11V9.72H327.542V11.72ZM340.11 10.72V2.56H338.11V10.72H340.11ZM339.11 1.56H305.99V3.56H339.11V1.56ZM304.99 2.56V10.72H306.99V2.56H304.99ZM305.99 11.72H317.462V9.72H305.99V11.72ZM316.462 10.72V40H318.462V10.72H316.462Z" fill="white"/>
</svg>
