<svg width="72" height="13" viewBox="0 0 72 13" fill="none" xmlns="http://www.w3.org/2000/svg">
<path d="M7.69981 9.06C7.88648 8.56533 8.11515 8.14067 8.38582 7.786H0.881815V6.638H8.38582C8.12448 6.28333 7.90048 5.85867 7.71381 5.364H8.77782C9.35648 6.04533 9.99115 6.56333 10.6818 6.918V7.52C9.99115 7.856 9.35648 8.36933 8.77782 9.06H7.69981ZM29.0891 7.366H26.0091C26.0371 9.41 25.6031 9.788 23.2651 9.788C20.9131 9.788 20.4791 9.284 20.4791 6.54C20.4791 3.796 20.9131 3.292 23.2651 3.292C25.6031 3.292 26.0371 3.67 26.0091 5.7H29.0891C29.1171 1.668 28.2071 0.911999 23.2651 0.911999C18.3231 0.911999 17.3991 1.794 17.3991 6.54C17.3991 11.286 18.3231 12.168 23.2651 12.168C28.2071 12.168 29.1171 11.412 29.0891 7.366ZM30.0625 1.08V12H37.8885V9.48H33.0025V1.08H30.0625ZM44.3354 3.292C46.7574 3.292 47.2054 3.796 47.2054 6.54C47.2054 9.284 46.7574 9.788 44.3354 9.788C41.9134 9.788 41.4654 9.284 41.4654 6.54C41.4654 3.796 41.9134 3.292 44.3354 3.292ZM38.3854 6.54C38.3854 11.286 39.3234 12.168 44.3354 12.168C49.3474 12.168 50.2854 11.286 50.2854 6.54C50.2854 1.794 49.3474 0.911999 44.3354 0.911999C39.3234 0.911999 38.3854 1.794 38.3854 6.54ZM54.0676 8.402V8.262H50.9876V8.402C50.9876 11.58 51.7716 12.168 56.3356 12.168C60.7736 12.168 61.5156 11.664 61.5156 9.032C61.5156 6.862 61.2356 6.386 59.7096 5.966C58.7576 5.7 57.9876 5.532 56.3356 5.21C54.5576 4.958 54.1376 4.804 54.1376 4.244C54.1376 3.46 54.4736 3.292 56.3356 3.292C58.0436 3.292 58.3096 3.53 58.3096 4.692V4.832H61.3896V4.692C61.3896 1.5 60.5916 0.911999 56.3356 0.911999C52.1916 0.911999 51.1976 1.57 51.1976 3.95C51.1976 6.26 51.5476 6.764 53.3816 7.198C54.8516 7.534 55.3976 7.66 56.3356 7.814C58.0576 8.15 58.5756 8.304 58.5756 8.906C58.5756 9.648 58.1976 9.788 56.3356 9.788C54.4456 9.788 54.0676 9.62 54.0676 8.402ZM62.4922 1.08V12H71.4382V9.48H65.4322V7.66H70.7242V5.28H65.4322V3.6H71.4382V1.08H62.4922Z" fill="white"/>
</svg>
